<svg width="48" height="48" viewBox="0 0 48 48" fill="none" xmlns="http://www.w3.org/2000/svg">
<circle cx="24" cy="24" r="24" fill="white"/>
<circle cx="24" cy="24" r="23.5" stroke="#010912" stroke-opacity="0.15"/>
<path fill-rule="evenodd" clip-rule="evenodd" d="M19.7761 12.1105C20.9979 12.0542 21.3875 12.0417 24.5 12.0417C27.6125 12.0417 28.0021 12.0553 29.2229 12.1105C30.4438 12.1657 31.2771 12.3605 32.0063 12.6428C32.7698 12.9313 33.4625 13.3824 34.0354 13.9657C34.6188 14.5376 35.0688 15.2292 35.3563 15.9938C35.6396 16.723 35.8334 17.5563 35.8896 18.7751C35.9459 19.999 35.9584 20.3886 35.9584 23.5001C35.9584 26.6126 35.9448 27.0022 35.8896 28.224C35.8344 29.4428 35.6396 30.2761 35.3563 31.0053C35.0688 31.77 34.618 32.4628 34.0354 33.0355C33.4625 33.6188 32.7698 34.0688 32.0063 34.3563C31.2771 34.6397 30.4438 34.8334 29.225 34.8897C28.0021 34.9459 27.6125 34.9584 24.5 34.9584C21.3875 34.9584 20.9979 34.9449 19.7761 34.8897C18.5573 34.8345 17.724 34.6397 16.9948 34.3563C16.2301 34.0688 15.5373 33.6181 14.9646 33.0355C14.3817 32.4633 13.9306 31.7708 13.6427 31.0063C13.3604 30.2772 13.1667 29.4438 13.1104 28.2251C13.0542 27.0011 13.0417 26.6115 13.0417 23.5001C13.0417 20.3876 13.0552 19.998 13.1104 18.7772C13.1656 17.5563 13.3604 16.723 13.6427 15.9938C13.931 15.2293 14.3824 14.5369 14.9656 13.9647C15.5376 13.3819 16.2297 12.9308 16.9938 12.6428C17.7229 12.3605 18.5563 12.1667 19.775 12.1105H19.7761ZM29.1302 14.173C27.9219 14.1178 27.5594 14.1063 24.5 14.1063C21.4406 14.1063 21.0781 14.1178 19.8698 14.173C18.7521 14.224 18.1459 14.4105 17.7417 14.5678C17.2073 14.7761 16.825 15.023 16.424 15.424C16.0438 15.7939 15.7512 16.2441 15.5677 16.7417C15.4104 17.1459 15.224 17.7522 15.1729 18.8699C15.1177 20.0782 15.1063 20.4407 15.1063 23.5001C15.1063 26.5595 15.1177 26.922 15.1729 28.1303C15.224 29.248 15.4104 29.8542 15.5677 30.2584C15.7511 30.7553 16.0438 31.2063 16.424 31.5761C16.7938 31.9563 17.2448 32.249 17.7417 32.4324C18.1459 32.5897 18.7521 32.7761 19.8698 32.8272C21.0781 32.8824 21.4396 32.8938 24.5 32.8938C27.5604 32.8938 27.9219 32.8824 29.1302 32.8272C30.2479 32.7761 30.8542 32.5897 31.2584 32.4324C31.7927 32.224 32.175 31.9772 32.5761 31.5761C32.9563 31.2063 33.249 30.7553 33.4323 30.2584C33.5896 29.8542 33.7761 29.248 33.8271 28.1303C33.8823 26.922 33.8938 26.5595 33.8938 23.5001C33.8938 20.4407 33.8823 20.0782 33.8271 18.8699C33.7761 17.7522 33.5896 17.1459 33.4323 16.7417C33.224 16.2074 32.9771 15.8251 32.5761 15.424C32.2062 15.0439 31.756 14.7513 31.2584 14.5678C30.8542 14.4105 30.2479 14.224 29.1302 14.173V14.173ZM23.0365 27.0324C23.8538 27.3726 24.764 27.4185 25.6114 27.1623C26.4589 26.906 27.1911 26.3635 27.6829 25.6274C28.1748 24.8913 28.3959 24.0072 28.3084 23.1262C28.2209 22.2452 27.8302 21.4219 27.2031 20.797C26.8034 20.3975 26.32 20.0916 25.7879 19.9013C25.2557 19.711 24.688 19.6411 24.1255 19.6966C23.5631 19.752 23.02 19.9315 22.5352 20.2221C22.0505 20.5127 21.6362 20.9071 21.3222 21.377C21.0082 21.8469 20.8023 22.3806 20.7193 22.9396C20.6363 23.4987 20.6783 24.0691 20.8422 24.61C21.0062 25.1509 21.288 25.6486 21.6674 26.0675C22.0469 26.4864 22.5144 26.8159 23.0365 27.0324ZM20.3354 19.3355C20.8823 18.7886 21.5316 18.3548 22.2462 18.0588C22.9607 17.7628 23.7266 17.6105 24.5 17.6105C25.2735 17.6105 26.0393 17.7628 26.7539 18.0588C27.4684 18.3548 28.1177 18.7886 28.6646 19.3355C29.2115 19.8824 29.6453 20.5317 29.9413 21.2462C30.2373 21.9608 30.3896 22.7266 30.3896 23.5001C30.3896 24.2735 30.2373 25.0394 29.9413 25.7539C29.6453 26.4685 29.2115 27.1178 28.6646 27.6647C27.5601 28.7692 26.062 29.3897 24.5 29.3897C22.938 29.3897 21.44 28.7692 20.3354 27.6647C19.2309 26.5601 18.6104 25.0621 18.6104 23.5001C18.6104 21.9381 19.2309 20.44 20.3354 19.3355V19.3355ZM31.6959 18.4876C31.8314 18.3597 31.9399 18.206 32.0149 18.0355C32.09 17.8649 32.13 17.6811 32.1327 17.4948C32.1355 17.3085 32.1008 17.1236 32.0307 16.9509C31.9607 16.7783 31.8567 16.6214 31.725 16.4897C31.5932 16.358 31.4364 16.254 31.2638 16.184C31.0911 16.1139 30.9062 16.0792 30.7199 16.0819C30.5336 16.0847 30.3497 16.1247 30.1792 16.1998C30.0087 16.2748 29.8549 16.3833 29.7271 16.5188C29.4785 16.7824 29.3423 17.1325 29.3476 17.4948C29.3529 17.8571 29.4992 18.2031 29.7554 18.4593C30.0116 18.7155 30.3576 18.8618 30.7199 18.8671C31.0822 18.8723 31.4323 18.7362 31.6959 18.4876V18.4876Z" fill="#010912"/>
</svg>
